<?xml version="1.0" standalone="no"?>
<!DOCTYPE svg PUBLIC "-//W3C//DTD SVG 20010904//EN"
 "http://www.w3.org/TR/2001/REC-SVG-20010904/DTD/svg10.dtd">
<svg version="1.0" xmlns="http://www.w3.org/2000/svg"
 width="400.000000pt" height="400.000000pt" viewBox="0 0 400.000000 400.000000"
 preserveAspectRatio="xMidYMid meet">
<metadata>
Created by potrace 1.11, written by Peter Selinger 2001-2013
</metadata>
<g transform="translate(0.000000,400.000000) scale(0.100000,-0.100000)"
fill="#000000" stroke="none">
<path d="M1924 3271 c-46 -11 -119 -54 -224 -132 -52 -38 -129 -85 -170 -105
-157 -72 -136 -49 -215 -244 -92 -227 -112 -267 -132 -278 -25 -15 -224 -3
-251 15 -23 14 -23 15 -6 34 18 20 17 20 -6 16 -14 -3 -43 -10 -65 -16 -64
-17 -115 -23 -115 -13 0 4 14 21 30 37 37 36 38 45 3 45 -29 0 -72 -23 -143
-74 -22 -16 -42 -27 -45 -25 -2 3 6 34 19 69 21 62 24 110 6 110 -4 0 -32 -29
-60 -65 -28 -36 -56 -65 -61 -65 -5 0 0 24 11 52 15 41 18 60 11 83 -6 16 -11
41 -13 55 -3 19 -9 8 -27 -45 -36 -105 -80 -200 -90 -189 -4 5 -13 36 -20 69
-15 69 -22 87 -40 93 -9 3 -11 -5 -7 -29 3 -19 6 -98 7 -177 l1 -143 26 -10
c15 -6 39 -16 54 -23 14 -8 44 -12 66 -9 32 4 58 -4 133 -39 157 -73 239 -118
239 -129 0 -7 -9 -26 -20 -45 -28 -44 -31 -83 -14 -146 8 -29 14 -82 13 -118
0 -36 0 -71 0 -77 1 -20 17 -15 29 10 47 94 83 144 117 163 77 45 135 38 280
-34 33 -16 70 -32 82 -36 15 -5 23 -18 28 -46 5 -31 1 -51 -24 -102 -46 -94
-41 -128 26 -168 20 -12 31 -15 25 -7 -7 8 -10 22 -6 31 4 12 0 16 -15 16 -33
0 -40 48 -11 72 28 23 51 23 100 -1 55 -27 41 1 -20 38 -47 29 -49 31 -39 63
5 18 9 34 9 35 0 2 4 3 9 3 5 0 19 -16 30 -36 25 -41 37 -41 21 1 -9 24 -8 26
7 21 16 -6 16 -5 1 11 -9 10 -18 27 -20 38 -2 17 4 21 42 25 l45 6 -40 12
c-22 6 -45 12 -51 12 -7 0 -14 16 -16 35 -3 29 0 36 22 44 14 6 50 10 80 9 63
-2 132 9 141 24 4 5 23 8 43 7 32 -3 39 0 56 29 15 24 31 34 66 43 37 10 48
18 56 41 6 16 30 42 54 59 26 17 44 38 44 49 0 10 18 32 39 49 24 19 42 43 46
62 9 41 2 45 -26 15 -24 -24 -63 -36 -313 -98 -43 -11 -89 -17 -101 -14 -26 7
-40 35 -26 49 7 7 -12 21 -58 41 -37 18 -79 39 -92 49 l-24 17 25 18 c14 9 34
27 45 40 11 13 34 39 52 58 40 44 57 96 79 234 16 95 22 115 47 143 16 18 40
48 53 68 13 19 67 75 120 124 93 85 174 177 174 196 0 10 -61 10 -106 0z
m-534 -1362 c0 -34 2 -33 -40 -15 l-33 13 21 21 c28 28 52 18 52 -19z"/>
<path d="M2355 2269 c27 -45 108 -139 214 -247 l120 -123 -42 -19 c-23 -11
-53 -20 -67 -20 -42 -1 0 -19 83 -36 39 -8 82 -16 94 -19 43 -10 70 -99 38
-125 -8 -7 -15 -19 -15 -27 0 -21 50 -103 63 -104 40 -3 73 -12 79 -22 13 -21
8 -90 -11 -151 -14 -47 -26 -64 -56 -85 -54 -37 -77 -83 -83 -166 -10 -161 59
-247 198 -246 99 0 168 48 191 134 15 55 15 145 0 189 -24 71 -111 126 -195
121 -48 -2 -49 32 -4 144 25 62 49 73 165 79 91 4 103 -1 103 -36 0 -26 20
-58 68 -110 13 -14 32 -42 43 -63 l20 -38 -22 11 c-16 9 -27 9 -44 0 -23 -12
-23 -13 -22 -214 l2 -201 41 -3 c25 -2 45 2 52 10 5 7 12 71 15 141 4 104 8
132 22 147 14 15 21 17 32 9 10 -9 13 -8 13 5 0 12 9 16 35 16 29 0 37 5 45
25 5 14 7 32 4 40 -9 22 -52 30 -88 16 -29 -10 -33 -9 -63 26 -71 82 -86 112
-89 167 -2 49 2 60 48 132 66 102 78 133 78 194 0 43 5 56 28 79 26 27 32 28
99 24 120 -7 97 21 -34 42 -89 14 -49 38 64 39 35 1 63 4 63 7 0 11 -56 31
-103 36 -27 3 -78 16 -113 28 -77 27 -117 24 -194 -15 -61 -30 -90 -37 -203
-46 -65 -5 -170 -26 -224 -45 -6 -2 -94 57 -195 132 -193 143 -267 193 -253
168z m615 -1039 c9 -6 17 -5 21 2 11 17 49 -11 65 -47 27 -66 12 -181 -29
-210 -22 -15 -73 -20 -102 -9 -25 10 -48 64 -50 124 -3 62 20 134 40 126 8 -3
16 2 19 10 6 16 15 17 36 4z"/>
<path d="M819 1513 c-9 -2 -19 -14 -21 -26 -3 -19 -3 -461 1 -544 1 -40 26
-56 70 -43 19 5 44 4 68 -3 114 -33 210 15 237 119 29 114 -4 245 -74 292 -29
20 -44 23 -90 19 -30 -3 -63 -8 -72 -12 -20 -8 -25 9 -31 108 -3 38 -9 73 -14
78 -12 12 -51 18 -74 12z m206 -273 c70 -26 76 -237 8 -265 -61 -24 -107 -12
-124 33 -14 35 -12 164 2 196 18 38 68 54 114 36z"/>
<path d="M1773 1512 c-13 -2 -23 -6 -23 -10 -1 -4 -2 -136 -3 -294 -2 -325 -2
-321 71 -321 22 0 45 3 51 7 15 10 14 54 -4 112 -12 37 -15 100 -15 264 0 118
-3 220 -8 226 -9 13 -40 21 -69 16z"/>
<path d="M2331 1501 c-12 -8 -14 -60 -15 -300 0 -160 3 -294 7 -298 4 -4 21
-8 37 -9 46 -3 56 20 59 138 2 120 14 174 41 188 32 17 75 12 98 -13 20 -21
23 -36 26 -154 2 -72 6 -135 9 -140 10 -16 40 -21 66 -11 l24 8 -5 153 c-5
170 -17 210 -69 241 -34 20 -99 23 -142 7 -35 -14 -39 -5 -47 97 -5 55 -12 87
-21 93 -18 11 -50 11 -68 0z"/>
<path d="M2053 1442 c-16 -2 -25 -14 -33 -40 -5 -20 -10 -42 -10 -48 0 -7 -11
-19 -25 -28 -16 -11 -25 -26 -25 -43 0 -15 11 -36 25 -49 23 -21 25 -30 26
-116 1 -152 12 -189 62 -215 35 -18 112 -19 133 -2 27 23 13 53 -33 67 -31 10
-44 21 -51 41 -11 30 -10 200 1 218 4 6 24 13 46 17 65 10 66 59 0 76 -29 8
-40 17 -44 35 -3 14 -7 36 -10 50 -6 28 -30 43 -62 37z"/>
<path d="M422 1299 c-65 -33 -94 -84 -100 -172 -6 -97 10 -153 59 -199 56 -54
154 -66 247 -32 51 19 67 43 47 72 -14 19 -18 19 -68 8 -29 -7 -71 -11 -92 -9
-69 5 -113 73 -61 93 13 5 65 10 115 11 123 4 135 13 128 90 -9 106 -55 149
-166 156 -54 4 -74 0 -109 -18z m165 -85 c17 -23 17 -61 1 -66 -7 -2 -46 -5
-85 -7 -69 -2 -73 -1 -73 19 0 55 51 92 109 79 19 -4 41 -16 48 -25z"/>
<path d="M1370 1305 c-80 -36 -113 -97 -113 -205 1 -152 67 -222 208 -222 88
0 155 32 155 73 0 29 -28 38 -79 25 -91 -24 -171 0 -171 50 0 33 25 41 144 46
117 5 128 13 122 90 -5 56 -29 102 -68 131 -36 27 -149 34 -198 12z m143 -82
c8 -10 18 -30 22 -44 5 -22 2 -27 -17 -33 -43 -11 -148 -7 -149 7 -3 26 3 43
24 65 26 28 96 31 120 5z"/>
<path d="M3761 1305 c-27 -12 -40 -13 -66 -4 -18 7 -44 9 -58 5 l-27 -6 0
-289 c0 -314 -2 -305 57 -295 34 6 42 19 44 64 3 110 9 122 51 109 87 -25 166
6 208 81 21 39 25 57 25 135 -1 101 -18 152 -65 185 -38 27 -125 35 -169 15z
m96 -80 c28 -20 41 -67 38 -139 -3 -89 -54 -143 -118 -125 -47 13 -60 32 -64
96 -6 83 5 140 30 163 25 24 83 26 114 5z"/>
<path d="M13 1298 c-7 -10 -11 -352 -4 -400 1 -11 73 -10 89 1 10 6 15 42 17
130 2 66 6 130 10 141 8 25 54 50 93 50 33 0 52 16 52 45 0 47 -60 60 -116 26
-29 -18 -31 -18 -53 0 -27 22 -74 25 -88 7z"/>
</g>
</svg>
