<svg xmlns="http://www.w3.org/2000/svg" xmlns:xlink="http://www.w3.org/1999/xlink" width="431" height="268" viewBox="0 0 431 268" version="1.1"><title>Behance</title><g stroke="none" stroke-width="1" fill="none" fill-rule="evenodd"><g fill="#999999"><path d="M388.43 38.12L280.66 38.12 280.66 11.35 388.44 11.35 388.44 38.12 388.43 38.12 388.43 38.12ZM208.91 147.9C215.87 158.67 219.34 171.74 219.34 187.1 219.34 202.98 215.42 217.22 207.45 229.8 202.38 238.13 196.09 245.16 188.52 250.82 180 257.37 169.91 261.86 158.32 264.26 146.68 266.66 134.09 267.88 120.53 267.88L0 267.88 0 0.25 129.25 0.25C161.83 0.78 184.93 10.22 198.57 28.75 206.75 40.12 210.8 53.76 210.8 69.62 210.8 85.98 206.7 99.08 198.44 109.02 193.84 114.6 187.05 119.67 178.06 124.25 191.68 129.24 202.01 137.09 208.91 147.9L208.91 147.9ZM61.72 105.76L118.35 105.76C129.99 105.76 139.4 103.55 146.65 99.13 153.89 94.71 157.5 86.86 157.5 75.6 157.5 63.15 152.72 54.88 143.13 50.91 134.88 48.14 124.33 46.72 111.53 46.72L61.72 46.72 61.72 105.76 61.72 105.76ZM162.95 183.28C162.95 169.37 157.27 159.76 145.93 154.6 139.59 151.67 130.64 150.18 119.17 150.07L61.72 150.07 61.72 221.39 118.28 221.39C129.9 221.39 138.89 219.87 145.38 216.7 157.08 210.86 162.95 199.76 162.95 183.28L162.95 183.28ZM428.42 139.74C429.72 148.49 430.31 161.2 430.07 177.8L290.49 177.8C291.26 197.07 297.91 210.54 310.53 218.25 318.14 223.09 327.36 225.45 338.16 225.45 349.55 225.45 358.83 222.57 365.97 216.65 369.87 213.51 373.3 209.08 376.27 203.5L427.43 203.5C426.09 214.88 419.93 226.42 408.86 238.15 391.71 256.79 367.65 266.13 336.76 266.13 311.24 266.13 288.75 258.25 269.23 242.54 249.77 226.78 240 201.21 240 165.75 240 132.49 248.77 107.03 266.38 89.32 284.05 71.57 306.85 62.73 334.96 62.73 351.62 62.73 366.64 65.71 380.04 71.69 393.4 77.69 404.44 87.12 413.13 100.08 421 111.5 426.06 124.7 428.42 139.74L428.42 139.74ZM378.06 144.73C377.12 131.41 372.68 121.33 364.67 114.43 356.72 107.52 346.8 104.06 334.96 104.06 322.08 104.06 312.13 107.76 305.06 115.05 297.94 122.32 293.51 132.21 291.69 144.73L378.06 144.73 378.06 144.73 378.06 144.73Z"/></g></g></svg>
