<svg xmlns="http://www.w3.org/2000/svg" xmlns:xlink="http://www.w3.org/1999/xlink" width="387" height="100" viewBox="0 0 387 100" version="1.1"><title>cgtrader</title><desc>Created with Sketch.</desc><defs><path d="M52.21 73.52C46.12 66.04 46.21 62.27 52.4 54.3 51.25 51.17 49.54 48.2 49.13 45.07 47.53 32.77 55.52 23.89 68.42 23.89 82.05 23.89 95.69 24.48 109.32 24.79 111.14 24.79 112.97 24.79 115.57 24.79 115.57 21.73 115.7 18.95 115.57 16.19 115.38 13.07 116.57 11.46 119.79 11.52 121.62 11.52 123.45 11.52 125.28 11.52 128.61 11.52 130.14 12.95 129.87 16.41 129.66 19.01 129.82 21.65 129.82 24.8 132.45 24.94 135.08 24.92 137.7 24.75 142.37 24.16 142.88 26.95 142.93 30.5 142.98 34.05 142.15 36.73 137.62 36.21 135.14 36.08 132.66 36.08 130.18 36.21 130.18 45.61 129.91 54.68 130.31 63.72 130.46 67.03 133.54 68.13 136.73 67.72 138.31 67.47 139.88 67.13 141.43 66.72 144.88 74.44 142.82 78.38 135.03 79.49 123.2 81.18 116.36 75.69 115.76 63.85 115.52 59.36 115.62 54.85 115.6 50.35 115.58 45.85 115.6 41.43 115.6 36.59L89.98 36.59C90.28 38.78 90.44 41 90.47 43.21 89.98 55.21 78.8 62.61 65.47 59.7 63.13 59.19 60.33 57.92 60.47 61.58 60.52 63.08 63.37 65.44 65.22 65.74 70.29 66.56 75.52 66.35 80.66 66.81 89.17 67.58 94.19 71.69 95.38 78.55 96.64 85.81 93.02 92.55 85.52 95.78 75.47 100.15 65.03 100.1 54.77 96.78 44.92 93.57 42.59 83.89 49.41 76.12 50.29 75.2 51.23 74.33 52.21 73.52ZM70.26 76.41L70.26 76.24C68.61 76.24 66.53 75.61 65.39 76.38 63.01 77.86 61.04 79.9 59.64 82.33 59.08 83.45 60.64 86.81 61.99 87.47 67.27 90 72.99 90.22 78.13 87.14 79.78 86.14 81.13 82.97 80.86 81 80.68 79.45 78.04 77.79 76.15 77 74.42 76.23 72.24 76.55 70.26 76.41ZM78.01 41.77C77.96 36.6 74.81 33.63 69.48 33.7 64.48 33.76 61.22 37.1 61.23 42.22 61.24 47.34 64.64 50.4 69.84 50.31 75.04 50.22 78.07 46.94 78.01 41.77Z" id="path-1"/></defs><g id="Page-1" stroke="none" stroke-width="1" fill="none" fill-rule="evenodd"><g id="cgtrader"><path d="M366.18 31.56C368.94 29.14 370.97 26.23 373.7 25.27 377.08 24.18 380.69 24.04 384.14 24.88 385.26 25.15 385.64 29.4 385.94 31.88 386.48 36.34 385.59 38.76 379.94 37.12 374.74 35.61 368.08 42.34 368.02 48.4 367.94 56.72 367.75 65.06 368.1 73.4 368.28 77.81 366.34 79.01 362.54 78.87 361.37 78.87 360.21 78.87 359.04 78.87 355.44 78.97 353.72 77.74 353.79 73.64 354.03 58.99 354.07 44.34 353.79 29.64 353.69 24.86 356.16 24.5 359.65 24.58 363.14 24.66 366.75 24.22 366.01 29.58 366.01 30.24 366.06 30.91 366.18 31.56ZM274.7 29.67C274.7 21.1 274.9 13.48 274.63 5.87 274.43 0.17 278.3 0.93 281.69 0.87 285.08 0.81 288.87 0.24 288.83 5.87 288.69 28.01 288.75 50.15 288.83 72.3 288.83 75.87 289 78.93 283.9 78.89 277.57 78.89 277.06 78.67 276.52 71.99 275.12 72.99 273.97 73.79 272.88 74.64 259.57 85.02 243.68 79.64 239.59 63.23 237.51 55.11 237.75 46.57 240.3 38.59 244.96 23.96 259.59 19.16 272.16 27.97 272.67 28.38 273.23 28.72 274.7 29.67ZM274.7 52.79C274.7 49.65 274.79 47.66 274.7 45.67 274.49 41.82 269.14 36.56 264.77 35.8 260.15 35.01 256.5 36.97 254.62 41.8 251.97 48.34 252.03 55.67 254.79 62.16 257.18 67.87 262.67 69.43 267.95 66.24 273.42 62.89 276.14 58.23 274.69 52.79L274.7 52.79ZM219.07 72.97C211.68 79.37 204.42 81.19 196.24 78.9 189.49 77.01 185.35 72.03 184.93 65.33 184.45 57.41 187.28 52.04 194.26 49.46 198.35 48.13 202.58 47.27 206.87 46.89 209.94 46.67 213.01 46.65 216.08 46.82 217.55 37.7 214.34 33.67 206.22 34.41 202.33 34.77 198.55 36.36 194.74 37.41 192.56 38.03 189.91 40.92 188.37 37.5 186.98 34.41 186.43 30.33 190.28 28.16 193.12 26.55 196.37 25.03 199.55 24.77 205.79 24.12 212.07 24.16 218.3 24.87 225.3 25.87 229.68 30.77 230 37.87 230.56 50.33 230.45 62.82 230.58 75.3 230.58 79.09 227.77 78.81 225.27 78.82 221.96 78.89 217.98 79.67 219.07 72.97ZM216.07 55.26C211.97 55.69 207.7 55.76 203.62 56.67 199.54 57.58 198.25 60.84 199 64.77 199.75 68.7 202.63 69.69 206 69.77 213.27 69.98 217.62 64.13 216.05 55.26L216.07 55.26ZM311.33 55.19C311.04 64.01 315 68.85 322.79 68.86 327.53 68.86 332.28 67.72 337.01 66.99 338.75 66.71 340.45 66.12 342.14 65.68 344.76 74.08 343.71 76.83 335.76 78.04 328.6 79.21 321.31 79.41 314.09 78.61 305.69 77.56 300.09 71.95 297.97 63.61 295.85 55.27 295.73 46.8 298.9 38.61 303.55 26.61 316.23 20.91 329.84 24.48 342.84 27.89 346.13 39.11 345.71 50.56 345.57 54.14 343.38 55.33 340.02 55.25 335.2 55.13 330.37 55.25 325.55 55.25L311.33 55.19ZM311.23 45.79L331.72 45.79C331.72 37.79 328.58 33.85 322.22 33.69 315.5 33.51 311.81 37.47 311.23 45.79ZM39.5 62.19C42.95 71.55 41.12 75.55 32.84 78.28 15.37 84.04 0.84 74.33 0.22 55.99 -0.06 49.85 0.8 43.71 2.78 37.89 7.59 24.71 25.05 19.34 37.11 26.62 41.25 29.12 42.02 34.08 38.86 40.21L33.42 37.19C24.29 32.08 16.16 36.1 15.02 46.51 14.6 50.15 14.63 53.82 15.11 57.45 16.38 66.7 24.05 70.56 32.45 66.36 34.76 65.2 36.92 63.72 39.5 62.19ZM162 31.5C169.83 24.18 176.29 21.84 180.17 24.63 182.45 26.27 182.55 33.04 180.03 38.36 174.23 35.04 169.54 37.16 166.14 42.36 164.88 44.24 164.14 46.43 163.99 48.69 163.74 56.84 163.69 65.01 163.99 73.16 164.13 77.33 162.53 79.01 158.53 78.83 157.04 78.77 155.53 78.83 154.04 78.83 151.04 78.83 149.56 77.59 149.59 74.3 149.7 59.3 149.74 44.3 149.59 29.3 149.54 25.3 151.54 24.36 154.81 24.65 157.81 24.91 162.08 23.27 161.81 28.93 161.83 29.79 161.89 30.65 162 31.5Z" id="Shape" fill="#999999" fill-rule="nonzero"/><mask id="mask-2" fill="white"><use xlink:href="#path-1"/></mask><use id="Shape" fill="#999999" fill-rule="nonzero" xlink:href="#path-1"/><path d="M70.26 76.41C72.26 76.55 74.42 76.23 76.14 76.98 78.03 77.79 80.67 79.45 80.85 80.98 81.09 82.98 79.77 86.12 78.12 87.12 73.01 90.2 67.26 89.98 61.98 87.45 60.59 86.79 59.07 83.45 59.63 82.31 61.03 79.88 63 77.84 65.38 76.36 66.52 75.59 68.6 76.22 70.25 76.22L70.26 76.41ZM78.01 41.77C78.07 46.94 74.93 50.22 69.84 50.31 64.75 50.4 61.24 47.2 61.23 42.22 61.22 37.24 64.46 33.76 69.48 33.7 74.81 33.63 77.96 36.6 78.01 41.77ZM274.69 52.79C276.14 58.23 273.44 62.93 267.92 66.27 262.64 69.46 257.15 67.9 254.76 62.19 252 55.7 251.94 48.37 254.59 41.83 256.47 36.97 260.12 35.01 264.74 35.83 269.11 36.59 274.46 41.83 274.67 45.7 274.78 47.66 274.69 49.65 274.69 52.79ZM216.05 55.26C217.62 64.13 213.27 69.98 205.98 69.78 202.61 69.69 199.7 68.55 198.98 64.78 198.26 61.01 199.56 57.59 203.6 56.68 207.64 55.77 211.95 55.69 216.05 55.26ZM311.23 45.79C311.81 37.47 315.5 33.51 322.23 33.69 328.59 33.85 331.77 37.79 331.73 45.79L311.23 45.79Z" id="Shape" fill="#999999" fill-rule="nonzero" mask="url(#mask-2)"/></g></g></svg>