<svg xmlns="http://www.w3.org/2000/svg" xmlns:xlink="http://www.w3.org/1999/xlink" width="400" height="400" viewBox="0 0 400 400" version="1.1"><title>facebook</title><defs><path d="M276.25 399.38L276.25 245 328.13 245 335.63 184.38 275.63 184.38 275.63 145.63C275.63 128.13 280.63 116.25 305.63 116.25L337.5 116.25 337.5 62.5C331.88 61.88 313.13 60 290.63 60 244.38 60 213.13 88.13 213.13 140L213.13 184.38 161.25 184.38 161.25 245 213.13 245 213.13 399.38 21.88 399.38C10 399.38 0 390 0 377.5L0 21.88C0 10 10 0 21.88 0L378.13 0C390 0 400 9.38 400 21.88L400 378.13C400 390 390.63 400 378.13 400L378.13 399.38 276.25 399.38Z" id="path-1"/></defs><g id="Page-1" stroke="none" stroke-width="1" fill="none" fill-rule="evenodd"><g id="facebook"><g id="f"><mask id="mask-2" fill="white"><use xlink:href="#path-1"/></mask><use id="Facebook" fill="#999999" fill-rule="nonzero" xlink:href="#path-1"/></g></g></g></svg>