<svg xmlns="http://www.w3.org/2000/svg" xmlns:xlink="http://www.w3.org/1999/xlink" width="390" height="395" viewBox="0 0 390 395" version="1.1"><title>Instagram</title><g stroke="none" stroke-width="1" fill="none" fill-rule="evenodd"><g fill="#999999"><path d="M195 90C134.35 90 85 139.35 85 200 85 260.65 134.35 310 195 310 255.65 310 305 260.65 305 200 305 139.35 255.65 90 195 90L195 90ZM195 290C145.37 290 105 249.63 105 200 105 150.37 145.37 110 195 110 244.63 110 285 150.37 285 200 285 249.63 244.63 290 195 290L195 290ZM305 45C285.7 45 270 60.7 270 80 270 99.3 285.7 115 305 115 324.3 115 340 99.3 340 80 340 60.7 324.3 45 305 45L305 45ZM305 95C296.73 95 290 88.27 290 80 290 71.73 296.73 65 305 65 313.27 65 320 71.73 320 80 320 88.27 313.27 95 305 95L305 95ZM195 130C156.4 130 125 161.4 125 200 125 238.6 156.4 270 195 270 233.6 270 265 238.6 265 200 265 161.4 233.6 130 195 130L195 130ZM195 250C167.43 250 145 227.57 145 200 145 172.43 167.43 150 195 150 222.57 150 245 172.43 245 200 245 227.57 222.57 250 195 250L195 250ZM290 0L100 0C44.86 0 0 44.86 0 100L0 295C0 350.14 44.86 395 100 395L290 395C345.14 395 390 350.14 390 295L390 100C390 44.86 345.14 0 290 0L290 0ZM370 295C370 339.11 334.11 375 290 375L100 375C55.89 375 20 339.11 20 295L20 100C20 55.89 55.89 20 100 20L290 20C334.11 20 370 55.89 370 100L370 295 370 295Z"/></g></g></svg>
