<svg xmlns="http://www.w3.org/2000/svg" xmlns:xlink="http://www.w3.org/1999/xlink" width="199" height="200" viewBox="0 0 199 200" version="1.1"><defs><path id="path-1" d="M107.82 83.47C104.52 83.45 103.22 81.51 103.22 81.51 103.04 80.61 102.73 67.57 102.62 54.52 102.51 41.01 102.61 27.48 103.28 27.44 107.1 20.29 119.27 5.87 119.27 5.87 96.54 10.34 84.15 25.22 84.15 25.22 80.49 22.34 73.03 22.82 73.03 22.82 76.52 24.74 80.02 30.34 80.02 34.97L80.02 80.55C80.02 80.55 72.39 87.26 66.51 87.26 63.04 87.26 60.9 85.36 59.72 83.81 58.92 82.73 58.57 81.82 58.57 81.82L58.57 25.54C57.85 26.06 56.82 26.49 55.77 26.49 54.52 26.48 53.23 25.85 52.35 24.02 51.69 22.63 51.26 20.56 51.26 17.54 51.26 7.15 63.02 0.27 63.02 0.27 48.08 4.26 34.26 11.94 15.83 33.05 -2.61 54.16 0.89 71.59 0.89 71.59 0.89 71.59 5.98 59.6 18.21 46.97 24.01 40.98 28.34 38.98 31.29 38.97 34.58 38.97 36.17 41.42 36.17 43.61L36.17 86.46C36.17 90.69 33.44 91.61 30.92 91.57 28.78 91.53 26.79 90.78 26.79 90.78 39.34 109.01 69.37 111.58 69.37 111.58L82.56 97.5 82.87 97.77 94.95 108.05C117.04 94.94 127.69 70.63 127.69 70.63 117.84 81.06 111.55 83.49 107.82 83.47L107.82 83.47Z"/><path d="M67.5-41C14.21-41-29 2.43-29 56 -29 109.57 14.21 153 67.5 153 120.8 153 164 109.57 164 56 164 2.43 120.8-41 67.5-41L67.5-41ZM67.5-36.73C92.14-36.73 115.31-27.09 132.73-9.57 150.16 7.94 159.75 31.23 159.75 56 159.75 80.77 150.16 104.05 132.73 121.57 115.31 139.09 92.14 148.73 67.5 148.73 42.86 148.73 19.69 139.09 2.27 121.57 -15.16 104.05-24.75 80.77-24.75 56 -24.75 31.23-15.16 7.94 2.27-9.57 19.69-27.09 42.86-36.73 67.5-36.73L67.5-36.73Z" id="path-3"/></defs><g id="Page-1" stroke="none" stroke-width="1" fill="none" fill-rule="evenodd"><g id="ue4" transform="translate(32.000000, 44.000000)"><mask id="mask-2" fill="white"><use xlink:href="#path-1"/></mask><g id="Clip-2"/><path d="M0.6 0.2L127.8 0.2 127.8 111.8 0.6 111.8 0.6 0.2Z" id="Fill-1" fill="#999999" mask="url(#mask-2)"/><mask id="mask-4" fill="white"><use xlink:href="#path-3"/></mask><use id="Clip-5" stroke="#979797" stroke-width="6" xlink:href="#path-3"/><path d="M-29-41L164-41 164 154 -29 154 -29-41Z" id="Fill-4" fill="#999999" mask="url(#mask-4)"/></g></g></svg>