<svg xmlns="http://www.w3.org/2000/svg" xmlns:xlink="http://www.w3.org/1999/xlink" width="424px" height="512px" viewBox="0 0 424 512" version="1.1"><title>YouTube</title><g stroke="none" stroke-width="1" fill="none" fill-rule="evenodd"><g fill="#999999"><path d="M415.954 264.376C413.483 253.143 408.005 243.723 399.538 236.112 391.064 228.501 381.311 224.027 370.268 222.694 335.248 218.888 282.431 216.986 211.811 216.986 141.193 216.986 88.47 218.889 53.637 222.694 42.41 224.027 32.608 228.501 24.23 236.112 15.854 243.726 10.334 253.147 7.668 264.376 2.72 286.459 0.245 319.767 0.245 364.307 0.245 409.606 2.72 442.917 7.668 464.237 10.146 475.462 15.619 484.89 24.089 492.498 32.559 500.112 42.314 504.489 53.352 505.632 88.378 509.629 141.199 511.628 211.813 511.628 282.422 511.628 335.253 509.629 370.266 505.632 381.309 504.489 391.014 500.112 399.392 492.498 407.769 484.891 413.289 475.462 415.952 464.237 420.9 442.154 423.378 408.846 423.378 364.307 423.377 319.007 420.899 285.695 415.954 264.376L415.954 264.376ZM121.025 293.218L90.476 293.218 90.476 455.668 61.927 455.668 61.927 293.218 31.947 293.218 31.947 266.381 121.026 266.381 121.026 293.218 121.025 293.218ZM198.11 455.668L172.7 455.668 172.7 440.247C162.422 451.862 152.711 457.666 143.575 457.666 134.821 457.666 129.3 454.142 127.019 447.102 125.498 442.534 124.733 435.583 124.733 426.258L124.733 314.627 150.143 314.627 150.143 418.551C150.143 424.639 150.239 427.972 150.431 428.544 151.002 432.541 152.999 434.539 156.427 434.539 161.565 434.539 166.993 430.542 172.701 422.548L172.701 314.627 198.111 314.627 198.111 455.668 198.11 455.668ZM295.183 413.411C295.183 427.305 294.328 436.828 292.623 441.969 289.379 452.431 282.627 457.666 272.35 457.666 263.213 457.666 254.364 452.431 245.794 441.969L245.794 455.671 220.388 455.671 220.388 266.381 245.794 266.381 245.794 328.336C253.983 318.063 262.83 312.923 272.35 312.923 282.627 312.923 289.379 318.254 292.623 328.911 294.327 333.859 295.183 343.28 295.183 357.175L295.183 413.411 295.183 413.411ZM391.685 390.003L340.581 390.003 340.581 414.842C340.581 427.976 344.955 434.539 353.712 434.539 359.991 434.539 363.801 431.117 365.132 424.259 365.508 422.357 365.703 416.553 365.703 406.847L391.684 406.847 391.684 410.557C391.684 419.886 391.489 425.403 391.112 427.12 390.545 432.253 388.552 437.393 385.117 442.533 378.265 452.622 367.978 457.666 354.276 457.666 341.149 457.666 330.869 452.811 323.443 443.108 317.926 436.065 315.168 425.025 315.168 409.988L315.168 360.592C315.168 345.556 317.83 334.516 323.155 327.473 330.582 317.768 340.765 312.915 353.712 312.915 366.467 312.915 376.562 317.768 383.975 327.473 389.121 334.516 391.685 345.556 391.685 360.592L391.685 390.003 391.685 390.003 391.685 390.003ZM258.634 336.043C254.254 336.043 249.976 338.144 245.787 342.326L245.787 428.26C249.975 432.446 254.254 434.539 258.634 434.539 266.053 434.539 269.774 428.167 269.774 415.409L269.774 355.173C269.773 342.418 266.061 336.043 258.634 336.043L258.634 336.043ZM353.428 336.043C344.863 336.043 340.581 342.518 340.581 355.453L340.581 368.587 366.274 368.587 366.274 355.453C366.274 342.511 361.99 336.043 353.428 336.043L353.428 336.043ZM104.473 113.917L104.473 191.292 133.022 191.292 133.022 113.917 167.563 0 138.442 0 119.032 75.089 98.759 0 68.497 0C73.827 15.99 80.013 33.785 87.056 53.391 96.003 79.656 101.805 99.835 104.473 113.917L104.473 113.917ZM205.82 193.291C218.954 193.291 229.039 188.437 236.082 178.73 241.414 171.687 244.076 160.456 244.076 145.041L244.076 95.075C244.076 79.85 241.407 68.712 236.082 61.669 229.039 51.962 218.954 47.108 205.82 47.108 193.064 47.108 183.07 51.962 175.84 61.669 170.513 68.712 167.848 79.85 167.848 95.075L167.848 145.04C167.848 160.265 170.51 171.497 175.84 178.729 183.073 188.437 193.063 193.291 205.82 193.291L205.82 193.291ZM193.541 89.935C193.541 76.801 197.634 70.234 205.82 70.234 214.006 70.234 218.095 76.801 218.095 89.935L218.095 149.89C218.095 163.218 214.006 169.875 205.82 169.875 197.634 169.875 193.541 163.214 193.541 149.89L193.541 89.935 193.541 89.935ZM284.328 193.291C293.851 193.291 303.656 187.39 313.741 175.586L313.741 191.289 339.722 191.289 339.722 48.822 313.741 48.822 313.741 157.599C308.029 165.785 302.608 169.874 297.462 169.874 294.033 169.874 292.034 167.781 291.466 163.594 291.275 163.213 291.179 159.879 291.179 153.6L291.179 48.822 265.198 48.822 265.198 161.314C265.198 171.019 265.965 178.154 267.484 182.725 269.961 189.768 275.574 193.291 284.328 193.291L284.328 193.291Z"/></g></g></svg>
