<svg xmlns="http://www.w3.org/2000/svg" xmlns:xlink="http://www.w3.org/1999/xlink" width="1000" height="642" viewBox="0 0 1000 642" version="1.1"><title>Rebel Thorp logo</title><g stroke="none" stroke-width="1" fill="none" fill-rule="evenodd"><g fill="#E6E6E6"><path d="M0 507.56L0 504.28C0 500.19 0.87 497.18 2.6 495.28 4.33 493.37 7.1 492.42 10.91 492.42L12.5 492.42C16.1 492.42 19.81 493.69 23.62 496.23 24.82 497.01 26.06 498.23 27.33 499.89 28.6 501.54 29.5 502.37 30.03 502.37 30.56 502.37 32.04 501.49 34.48 499.73 36.92 497.96 39.69 496.35 42.8 494.91 45.9 493.46 49.79 492.74 54.45 492.74 59.11 492.74 62.54 493.72 64.72 495.7 66.91 497.68 68.01 499.58 68.01 501.42 68.01 506.5 66.38 510.56 63.14 513.6 61.72 514.94 58.3 515.61 52.86 515.61 47.42 515.61 43.04 516.39 39.72 517.94 36.41 519.5 33.76 522.3 31.78 526.36 29.8 530.42 28.81 542.07 28.81 561.31 28.81 580.55 28.05 591.52 26.54 594.2 25.02 596.88 20.69 598.22 13.56 598.22L11.76 598.22 9.96 598.12C6 598.12 3.5 597.48 2.44 596.21 1.38 594.94 0.85 590.81 0.85 583.82L1.8 564.23 2.01 558.82 2.01 549.61 1.91 544.1 1.91 540.4 1.8 534.99 1.8 531.39 1.59 525.99C1.59 523.03 1.32 519.48 0.79 515.35 0.26 511.22 0 508.62 0 507.56L0 507.56ZM150.32 529.38L150.32 527.58C150.32 522 148.45 517.59 144.7 514.34 140.96 511.09 136.48 509.47 131.25 509.47L128.6 509.47C122.46 509.47 117.3 511.55 113.14 515.72 108.97 519.88 106.89 524.97 106.89 530.97L106.89 532.66C106.89 534.57 109.18 535.52 113.77 535.52L119.17 535.52 119.81 535.42 142.27 534.36 144.6 534.15C148.41 534.15 150.32 532.56 150.32 529.38L150.32 529.38ZM141.63 552.47C118.82 552.47 107.42 554.87 107.42 559.67 107.42 565.74 109.64 570.54 114.09 574.08 118.54 577.61 124.15 579.37 130.93 579.37 137.71 579.37 144.24 578.47 150.53 576.67 156.81 574.87 161.07 573.97 163.29 573.97 165.52 573.97 167.39 574.87 168.91 576.67 170.43 578.47 171.19 581.15 171.19 584.72 171.19 588.28 167.32 591.9 159.59 595.58 151.85 599.25 143.89 601.08 135.7 601.08L127.97 601.08C121.89 601.08 115.47 599.85 108.69 597.38 95.41 592.57 86.83 583.82 82.94 571.11 80.76 564.05 79.66 556.92 79.66 549.72L79.66 544.63C79.66 518.79 88.77 501.99 106.99 494.22 113.77 491.32 121.47 489.88 130.08 489.88 144.7 489.88 155.83 493.55 163.45 500.89 166.7 504.07 169.47 508.59 171.77 514.45 174.06 520.31 175.21 525.71 175.21 530.65L175.21 537.75C175.21 543.82 173.04 547.79 168.7 549.66 164.35 551.53 155.33 552.47 141.63 552.47L141.63 552.47ZM243.33 579.69L247.56 579.69C254.98 579.69 260.91 576.48 265.36 570.05 268.61 565.39 270.23 558.12 270.23 548.23L270.23 543.78 270.13 542.62 269.91 538.28 269.91 536.05C269.77 534.64 269.7 533.62 269.7 532.98 269.7 526.34 267.83 520.61 264.09 515.77 260.35 510.93 255.51 508.52 249.58 508.52L245.44 508.52C237.68 508.52 231.92 511.45 228.18 517.31 225.71 521.12 224.47 528.46 224.47 539.34L224.47 549.72 224.58 550.77 224.89 556.81C224.96 557.52 225 558.19 225 558.82 225 565.25 226.59 570.33 229.77 574.08 232.94 577.82 237.46 579.69 243.33 579.69L243.33 579.69ZM253.28 598.86L250.74 598.86C246.01 598.86 240.57 597.83 234.43 595.79 228.28 593.74 225.12 592.72 224.95 592.72 224.77 592.72 223.6 593.39 221.45 594.73 219.3 596.07 216.38 596.74 212.71 596.74 206.14 596.74 202.17 595.19 200.79 592.08 199.42 588.97 198.73 580.85 198.73 567.72L198.73 562.74 198.83 560.2 198.83 545.27 198.94 537.85 198.94 525.36 199.05 520.38 199.05 483.84C199.05 461.95 199.38 449.35 200.05 446.03 200.72 442.71 204.13 441.05 210.28 441.05L212.71 441.05C218.78 441.05 222.67 442.55 224.36 445.55 226.06 448.55 226.91 457.1 226.91 471.18 226.91 485.27 228.6 492.31 231.99 492.31 232.91 492.31 234.85 491.82 237.82 490.83 240.78 489.84 243.4 489.06 245.66 488.5 247.92 487.93 251.99 487.65 257.89 487.65 263.79 487.65 269.21 489.05 274.15 491.84 279.1 494.62 283.09 498.35 286.12 503.01 292.83 513.25 296.19 525.71 296.19 540.4L296.19 545.69C296.19 570.62 288.1 586.93 271.93 594.62 266 597.45 259.78 598.86 253.28 598.86L253.28 598.86ZM384.43 529.38L384.43 527.58C384.43 522 382.56 517.59 378.81 514.34 375.07 511.09 370.59 509.47 365.36 509.47L362.71 509.47C356.57 509.47 351.41 511.55 347.25 515.72 343.08 519.88 341 524.97 341 530.97L341 532.66C341 534.57 343.29 535.52 347.88 535.52L353.28 535.52 353.92 535.42 376.38 534.36 378.71 534.15C382.52 534.15 384.43 532.56 384.43 529.38L384.43 529.38ZM375.74 552.47C352.93 552.47 341.52 554.87 341.52 559.67 341.52 565.74 343.75 570.54 348.2 574.08 352.65 577.61 358.26 579.37 365.04 579.37 371.82 579.37 378.35 578.47 384.64 576.67 390.92 574.87 395.18 573.97 397.4 573.97 399.63 573.97 401.5 574.87 403.02 576.67 404.54 578.47 405.3 581.15 405.3 584.72 405.3 588.28 401.43 591.9 393.7 595.58 385.96 599.25 378 601.08 369.81 601.08L362.08 601.08C356 601.08 349.58 599.85 342.8 597.38 329.52 592.57 320.94 583.82 317.05 571.11 314.87 564.05 313.77 556.92 313.77 549.72L313.77 544.63C313.77 518.79 322.88 501.99 341.1 494.22 347.88 491.32 355.58 489.88 364.19 489.88 378.81 489.88 389.94 493.55 397.56 500.89 400.81 504.07 403.58 508.59 405.88 514.45 408.17 520.31 409.32 525.71 409.32 530.65L409.32 537.75C409.32 543.82 407.15 547.79 402.81 549.66 398.46 551.53 389.44 552.47 375.74 552.47L375.74 552.47ZM470.02 582.97L470.02 587.74C470.02 592.89 468.98 596.05 466.9 597.22 464.81 598.38 461.12 598.96 455.83 598.96L450.21 598.96C440.04 598.96 434.96 590.99 434.96 575.03L434.96 573.33 435.59 566.34C435.8 564.3 435.91 563.17 435.91 562.95L436.33 559.57C436.69 555.68 436.86 551.2 436.86 546.11L436.86 530.86 436.97 527.05 436.97 515.4 437.08 509.47 437.08 497.82 437.18 493.9 437.18 482.25 437.29 478.33C437.29 472.61 437 467.49 436.44 462.98 435.87 458.46 435.59 454.52 435.59 451.17 435.59 447.81 436.28 445.41 437.66 443.96 439.04 442.52 441.77 441.79 445.87 441.79L451.48 441.79C457.84 441.86 461.37 444.09 462.08 448.47 462.36 450.44 462.5 459.23 462.5 474.84L462.39 476.85 462.39 480.66 462.29 482.57 462.29 486.38 462.18 492.21 462.18 499.94 462.08 501.95 462.08 511.59 461.97 513.6 461.97 523.24 461.86 529.06 461.86 540.82 462.08 548.34C462.08 553.49 463.4 560.2 466.05 568.46 468.7 576.72 470.02 581.56 470.02 582.97L470.02 582.97ZM554.87 589.33C554.87 595.61 548.45 598.75 535.59 598.75 522.74 598.75 513.66 594.37 508.37 585.62 504.34 578.84 502.33 565.18 502.33 544.63L502.33 540.08 502.12 533.51 502.01 531.29 501.91 524.62C501.91 519.6 501.57 516.37 500.9 514.92 500.23 513.48 498.11 511.76 494.54 509.79 490.98 507.81 489.19 505.23 489.19 502.06L489.19 500.15C489.19 494.64 491.21 490.92 495.23 488.98 499.26 487.03 501.62 485.22 502.33 483.52 502.4 483.31 502.98 480.2 504.08 474.2 505.17 468.2 506.44 464.14 507.89 462.02 509.34 459.9 512.59 458.84 517.64 458.84 522.69 458.84 525.88 460.4 527.22 463.5 527.72 464.63 528.49 468.34 529.55 474.63 530.61 480.91 531.81 484.85 533.16 486.43 534.5 488.02 537.71 489.31 542.8 490.3 547.88 491.29 551.08 492.28 552.38 493.27 553.69 494.25 554.34 496.65 554.34 500.47 554.34 504.28 552.75 506.89 549.58 508.3 548.3 508.87 545.3 509.35 540.57 509.73 535.84 510.12 532.64 511.27 530.98 513.18 529.32 515.08 528.49 521.72 528.49 533.09L528.39 535.31C528.32 536.79 528.28 538.28 528.28 539.76L528.18 541.98 528.18 546.54C528.18 560.87 529.15 569.45 531.09 572.27 533.03 575.1 536.44 576.79 541.31 577.36 546.19 577.92 549.66 579.02 551.75 580.64 553.83 582.27 554.87 585.16 554.87 589.33L554.87 589.33ZM591.63 597.06L588.88 597.06C585.63 597.06 583.16 596.12 581.46 594.25 579.77 592.38 578.92 588.87 578.92 583.71L579.02 580.43 579.02 566.98 579.13 560.31 579.13 543.68 579.24 533.62 579.24 526.95 579.34 516.88 579.34 500.15 579.13 483.73C579.13 463.12 579.24 451.82 579.45 449.84 579.94 445.25 583.4 442.96 589.83 442.96 596.26 442.96 600.42 444.26 602.33 446.88 604.24 449.49 605.19 458.07 605.19 472.61 605.19 487.16 606.88 494.43 610.27 494.43 611.26 494.43 614.16 493.51 618.96 491.68 623.83 489.91 629.17 489.03 634.96 489.03 640.61 489.03 645.97 490.34 651.06 492.95 660.59 497.96 666.35 507.92 668.32 522.81 669.45 531.85 670.02 546.04 670.02 565.39L670.02 574.92 670.13 577.99 670.13 584.35C670.13 589.93 669.24 593.3 667.48 594.46 665.71 595.63 662.3 596.21 657.26 596.21 652.21 596.21 648.87 594.3 647.24 590.49 646.4 588.51 645.97 577.73 645.97 558.14 645.97 538.54 645.16 526.8 643.54 522.92 640.64 516 635.03 512.54 626.69 512.54 618.36 512.54 612.62 515.07 609.48 520.11 606.34 525.16 604.77 535.49 604.77 551.09L604.34 570.9C604.34 582.05 603.55 589.2 601.96 592.34 600.37 595.49 596.93 597.06 591.63 597.06L591.63 597.06ZM740.15 580.64L744.49 580.64C752.19 580.64 757.94 577.68 761.76 571.75 765.57 565.81 767.48 557.84 767.48 547.81L767.48 542.2C767.48 531.96 765.45 523.93 761.39 518.1 757.33 512.28 751.69 509.36 744.49 509.36L741.31 509.36C734.32 509.36 728.72 512.1 724.52 517.57 720.32 523.04 718.22 530.9 718.22 541.14L718.22 547.92C718.22 557.8 720.14 565.73 723.99 571.69 727.84 577.66 733.23 580.64 740.15 580.64L740.15 580.64ZM793.43 539.44L793.43 546.86C793.43 554.34 792.28 561.65 789.99 568.78 787.69 575.91 784.57 581.65 780.61 585.99 776.66 590.33 771.52 593.92 765.2 596.74 758.88 599.56 751.98 600.98 744.49 600.98L738.88 600.98C724.54 600.98 712.92 595.89 704.02 585.73 696.26 576.9 692.37 564.58 692.37 548.76L692.37 541.35C692.37 533.44 693.59 526.13 696.03 519.43 698.46 512.72 701.75 507.21 705.88 502.9 710.01 498.6 715.34 495.24 721.87 492.84 728.41 490.44 735.56 489.24 743.32 489.24L745.23 489.35C751.8 489.35 758.12 490.48 764.19 492.74 776.83 497.54 785.45 506.26 790.04 518.9 792.3 525.04 793.43 531.89 793.43 539.44L793.43 539.44ZM816.74 507.56L816.74 504.28C816.74 500.19 817.6 497.18 819.33 495.28 821.06 493.37 823.83 492.42 827.65 492.42L829.24 492.42C832.84 492.42 836.54 493.69 840.36 496.23 841.56 497.01 842.79 498.23 844.07 499.89 845.34 501.54 846.24 502.37 846.77 502.37 847.3 502.37 848.78 501.49 851.22 499.73 853.65 497.96 856.42 496.35 859.53 494.91 862.64 493.46 866.52 492.74 871.18 492.74 875.85 492.74 879.27 493.72 881.46 495.7 883.65 497.68 884.74 499.58 884.74 501.42 884.74 506.5 883.12 510.56 879.87 513.6 878.46 514.94 875.03 515.61 869.6 515.61 864.16 515.61 859.78 516.39 856.46 517.94 853.14 519.5 850.49 522.3 848.52 526.36 846.54 530.42 845.55 542.07 845.55 561.31 845.55 580.55 844.79 591.52 843.27 594.2 841.75 596.88 837.43 598.22 830.29 598.22L828.49 598.22 826.69 598.12C822.74 598.12 820.23 597.48 819.17 596.21 818.11 594.94 817.58 590.81 817.58 583.82L818.54 564.23 818.75 558.82 818.75 549.61 818.64 544.1 818.64 540.4 818.54 534.99 818.54 531.39 818.32 525.99C818.32 523.03 818.06 519.48 817.53 515.35 817 511.22 816.74 508.62 816.74 507.56L816.74 507.56ZM974.36 542.2C974.36 531.89 972.84 524.37 969.81 519.64 965.57 513 960.17 509.68 953.6 509.68L949.36 509.68C941.24 509.68 935.24 512.89 931.35 519.32 929.09 523.06 927.96 530.19 927.96 540.71L927.96 553.21 928.07 554.27 928.18 557.34 928.49 562.43C928.49 567.86 930.1 572.33 933.31 575.82 936.53 579.32 940.92 581.07 946.5 581.07L949.47 581.07C956.6 581.07 962.48 578.33 967.11 572.86 971.73 567.39 974.04 560.52 974.04 552.26L974.26 550.03 974.36 545.59 974.36 542.2ZM956.3 600.34C951.11 600.34 947.3 599.99 944.86 599.28 942.42 598.58 940.01 597.8 937.6 596.95 935.2 596.1 933.72 595.68 933.15 595.68 929.84 595.68 928.18 605.21 928.18 624.28 928.18 630.91 927.24 635.5 925.37 638.05 923.5 640.59 919.98 641.86 914.83 641.86L912.6 641.86C907.52 641.86 904.5 640.87 903.55 638.89 902.59 636.92 902.12 629.04 902.12 615.27L902.12 612.84 902.22 610.4 902.22 600.55 902.75 571.53 902.75 532.98C902.75 509.82 902.82 498 902.96 497.5 903.95 494.04 908.58 492.31 916.84 492.31 920.02 492.31 922.74 493.35 925 495.44 927.26 497.52 928.81 498.56 929.66 498.56 930.51 498.56 932.34 497.78 935.17 496.23 942.44 492.28 949.57 490.3 956.57 490.3 977.33 490.3 990.68 499.51 996.61 517.94 998.8 524.65 999.89 531.99 999.89 539.97L999.89 545.27C999.89 552.96 998.9 560.34 996.93 567.4 992.76 582.3 984.67 592.15 972.67 596.95 966.95 599.21 961.49 600.34 956.3 600.34L956.3 600.34Z"/><path d="M751.51 513.92C750.54 507.14 762.21 504.96 764.21 499.68 765.89 495.24 759.34 482.29 767.43 487.22 770.75 484.31 763.95 466.67 762.89 462.97 761.63 458.55 760.47 454.93 757.89 451.14 756.06 448.45 754.88 441.19 753.2 439.52 751.71 438.03 748.69 443.38 748.58 438.38 748.53 436.41 718.1 433.34 715.84 432.96 709.53 431.89 702.02 435.29 696.31 433.09 695.83 434.16 697.55 435.11 697.13 435.84 695.97 437.84 691.22 434.02 691.1 437.78 690.96 442.64 691.72 446.91 689.97 451.64 686.62 460.73 677.66 464.96 672.3 472.55 670.91 474.51 655.61 495.53 662.02 496.65 664.92 497.15 667.38 490.17 670.15 489.21 673.75 487.96 676.67 494.8 673.85 495.89 672.5 496.41 672.62 493.46 671.03 494.19 667.12 495.97 670.94 502.26 663.95 503.95 659.97 504.91 658.24 515.28 655.4 518.44 650.84 523.52 651.4 509.64 650.91 508.69 648.11 509.09 640.45 521.21 638.83 523.69 635.93 528.13 637.92 513.21 638.97 511.34 636.02 512.89 627.55 517.92 624.79 513.17 624.18 512.11 617.64 512.44 622.78 508.99 626.8 506.3 632.01 507.19 636.47 505.28 642.62 502.64 644.03 499.36 648.36 494.43 656.9 484.72 665.37 475.33 672.22 464.26 677.17 456.26 678.26 433.83 672.43 426.18 665.64 417.27 661.18 407.27 654.1 398.41 645.83 388.05 642.78 373.4 644.45 360.46 645.71 350.67 638.86 341.71 629.75 339.49 619.06 336.87 599.51 343.22 590.58 337.35 594.32 331.08 634.54 329.35 634.42 323.97 634.35 320.6 615.24 318.71 612.53 318.46 610.43 318.26 588 319.4 588.06 319.5 585.18 315.4 606.39 309.34 608.07 309 619.72 306.71 629.97 308.61 640.53 302.57 661.8 290.4 679.9 297.35 698.89 309.09 707.54 314.44 717.71 313.93 727.42 314.99 749.14 317.36 781.01 319.08 801.14 329.53 805.23 326.84 894.76 259.15 894.76 259.15L896.02 259.15 904.69 253.65 908.7 251.53C908.7 251.53 910.55 250.91 910.95 251.05 912.8 251.68 909.91 253.65 909.91 253.65 909.91 253.65 910.64 254.49 909.91 255.33 909.01 256.36 906.94 258.52 906.94 258.52 906.5 258.97 904.06 261.41 903.52 261.95 903.23 262.24 904.41 262.17 902.77 264.54 901.13 266.92 893.74 274.64 893.74 274.64 893.74 274.64 893.73 276.08 892.65 277.85 891.58 279.62 867.87 302.57 867.87 302.57 867.87 302.57 867.53 305.16 866.61 306.35 865.7 307.55 843.49 326.85 843.49 326.85 843.49 326.85 843.4 328.54 841.87 330.82 841.87 330.82 829.58 342.35 828.56 343.52 827.37 344.88 825.71 344.25 829.28 346.18 832.84 348.11 844.57 355.25 850.75 354.69 859.34 353.9 862.03 357.34 852.14 360.2 840.1 363.68 827.35 365.84 814.93 367.46 805.44 368.71 800.64 373.28 798.12 382.94 797.03 387.14 794.48 392.67 797.18 396.49 798.17 397.89 805.54 405.36 804.55 407.16 804.05 408.07 803.4 408.75 802.56 408.45 807.49 410.22 792.95 429.98 790.61 431.69 785.57 435.37 775.68 433.32 769.98 435.99 767.34 437.23 767.05 449.31 766.47 452.25 764.95 459.92 769.6 469.78 771.93 476.94 774.25 484.08 776.19 492.26 779.18 499.07 781.96 505.4 790.46 502.24 790.93 509.97 789.28 509.2 774.84 508.19 774.74 508.53 773.64 512.09 772.82 515.9 768.74 516.83 762.65 518.21 768.46 508.37 767.88 505.64 767.3 506.13 752.06 517.77 751.51 513.92Z" transform="translate(749.681839, 387.768934) scale(-1, 1) translate(-749.681839, -387.768934) "/><path d="M336.17 432.51C329.93 428.66 327.83 426.82 326.43 423.99 325.88 422.89 325.68 421.96 325.53 419.82 325.37 417.68 325.45 412.17 325.66 410.45 325.9 408.51 326.28 406.53 326.72 404.93 327.91 400.56 329.41 397.7 333.7 391.64 337 386.98 338.39 384.04 339.06 380.34 339.58 377.46 339.8 371.47 339.5 368.45 338.86 362.09 336.86 357.64 334.02 356.3 333.29 355.95 333.08 355.91 331.9 355.89 329.34 355.86 328.05 355.31 313.02 347.91 299.87 341.44 297.32 340.23 290.9 337.48 283.3 334.23 277.05 332.11 272.08 331.11 268.08 330.31 265.55 330.24 262.1 330.83 250.36 332.86 239.51 337.45 233.31 343.01 230.88 345.19 230.41 345.93 224.46 356.84 219.53 365.9 216.76 370.84 214.28 374.96 210.58 381.11 207.87 384.88 206.45 385.81 205.44 386.49 204.96 386.28 204.56 385 204.24 383.94 204.27 377.32 204.63 371.21 205.07 363.68 205.19 359.71 205.11 354.78 204.98 345.55 204.2 340.65 201.95 334.92 199.94 329.81 195.17 313.34 201.67 302.18 208.17 291.03 208.92 290.43 210.1 287.99 211.08 285.97 211.27 284.51 210.65 283.65 209.7 282.3 200.54 277.31 182.78 268.45 153.54 253.85 126.41 241.51 123.58 241.51 123.38 241.51 122.23 241.74 121.03 242.02 117.4 242.86 108.08 244.89 107.81 244.89 107.67 244.89 106.57 244.33 105.35 243.65 94.06 237.35 85.58 233.84 82.93 234.38 81.42 234.18 80.85 230.58 80.53 224.52 80.3 220.17 80.15 209.21 80.02 188.35 79.88 164.99 79.77 160.5 79.21 154.71 78.86 151.08 78.62 150.08 77.71 148.33 76.93 146.85 76.86 146.34 77.34 145.86 78.61 144.59 84.98 147.46 86.44 149.97 86.79 150.56 86.96 151.47 87.88 157.48 90.94 177.57 93.49 187.11 96.15 188.49 98.23 187.77 100.71 183.22 104.02 175.48 111.11 158.88 120.44 131.23 122.16 121.75 122.29 120.99 122.44 119.76 122.48 119.02 122.71 117.83 123.18 120.43 123.71 123.56 125.22 132.57 126.31 137.63 127.58 141.53 128.27 143.62 129.41 146 130.18 146.92 130.85 147.73 130.93 147.95 130.84 148.9 130.76 149.8 130.32 150.78 129 152.99 126.85 156.61 125.97 158.52 125.22 161.2 124.69 163.07 124.08 164.72 122.35 168.96 120.48 173.54 120.06 175 120.45 175.6 120.74 176.04 121.25 176.01 122.26 175.48 123.63 174.75 125.22 173.46 127.27 171.42 131.19 167.5 134.84 163.03 143.96 150.98 149.38 143.82 151.58 141.18 152.09 141.18 152.43 141.98 152.73 142.38 153.67 143.36 155.04 144.79 155.55 145.67 155.89 147.21 156.14 148.34 156.17 151.5 155.94 153.17 155.1 159.34 152.53 167.4 147.67 179.1 145.56 184.18 144.97 186.08 145.11 187.35 145.38 189.76 148.23 188.59 155.61 183.04 157.05 181.96 159.97 179.73 162.09 178.1 173.12 169.62 179.43 165.63 184.71 163.8 187.07 162.98 187.6 162.92 193.62 162.78 199.72 162.64 201.45 162.66 201.67 162.88 202.03 163.24 201.61 163.76 197.82 167.6 192.96 172.52 188.73 177.04 187.01 179.16 185.36 181.19 184.72 182.36 184.72 183.33 185.68 184.84 186.4 184.97 188.7 184.96 193.61 184.92 202.62 182.95 221.24 177.85 228.13 175.96 231.29 175.26 233.03 175.24 234.2 175.22 234.54 175.4 234.37 175.93 234.32 176.09 232.98 177.52 231.39 179.1 228.26 182.2 227.83 182.78 227.83 183.88 227.83 185.32 229.7 187.21 232.94 189.07 237.71 191.81 243.74 193.43 249.15 193.44 251.76 193.44 253.06 193.28 255.64 192.61 257.94 192.01 259.53 191.86 262.42 191.95 265.35 192.04 267.12 192.23 273.2 193.1 283.58 194.57 287.11 194.79 291.12 194.21 293.52 193.86 295.85 193 297.27 191.94 298.13 191.3 299.19 190.17 299.83 189.22 303.81 183.29 314.73 158.22 330.05 119.81 334.62 108.37 339.63 95.57 343.13 86.45 344.23 83.59 345.3 80.95 345.52 80.58 346.45 79 348.39 77.3 351.11 75.68 354.28 73.8 357.23 72.55 367.98 68.49 378.42 64.55 383.21 62.53 388.92 59.64 395.96 56.08 396.93 55.44 412.6 43.94 425.29 34.63 430.05 31.18 435.93 27.05 456.59 12.54 470.22 4.86 479.89 2.29 484.15 1.16 492.17 0.18 498.46 0.02 503.54-0.1 506.41 0.29 507.47 1.26 508.25 1.98 507.31 4.14 504.34 8.41 498.28 17.15 487.81 29.24 477.07 39.91 470.81 46.12 466.77 49.74 461.45 53.89 453.8 59.85 444.55 68.92 437.79 77.05 434.72 80.75 432.71 83.61 431.04 86.63 429.15 90.06 427.77 91.76 421.55 98.28 415.71 104.41 413.8 106.77 412.59 109.36 411.86 110.94 411.78 111.36 411.78 113.9 411.78 118.4 410.83 126.39 408.98 137.36 405.48 158.15 401.12 175.59 397.72 182.38 396.44 184.93 393.69 188.67 390.83 191.74 389.32 193.36 387.68 194.94 384.37 197.99 380.56 201.49 379.08 203.18 378.74 204.45 377.86 207.79 376.92 209.56 375.18 211.15 374.17 212.08 373.23 212.68 370.78 214 364.72 217.24 361.07 220.03 360.05 222.18 359.18 224.03 359.76 224.81 363.86 227.25 366.77 228.99 369.88 230.66 375.64 233.57 388.72 240.16 399.75 244.96 403.7 245.76 405.36 246.1 405.58 246.2 405.53 246.54 405.49 246.84 405.17 247.02 402.07 248.51 400.47 249.28 399.41 250.02 398.96 250.69 398.56 251.3 398.64 252.06 399.24 253.27 401.02 256.85 405.94 261.66 409.1 262.89 410.66 263.5 410.94 263.49 414.34 262.76 430.8 259.2 450.36 254.38 457.15 252.2 465.34 249.56 482.56 245.27 501.02 241.25 502.9 240.84 504.67 240.39 504.94 240.26 506.46 239.52 509.23 236.86 513.42 232.14 516.59 228.57 518.7 226.38 519.46 225.88 521.14 227.94 519.92 235.03 518.26 240.18 516.93 244.33 515.36 247.26 513.91 248.3 513.64 248.49 512.52 249.24 511.42 249.97 505.04 254.18 499.5 259.15 498.31 261.73 498.02 262.35 498.01 262.48 498.09 263.68 498.23 265.65 497.89 266.56 496.01 269.41 495.46 270.25 494.85 271.28 494.66 271.69 494.06 273.03 492.69 274.03 486.12 277.94 479.89 281.65 477.43 283.31 475.92 284.8 475.07 285.66 474.73 286.32 474.72 287.18 474.71 289.98 472.9 295.73 471.38 297.82 470.78 298.64 469.71 299.05 464.31 300.51 462.53 300.99 459.75 301.74 458.14 302.18 450.93 304.14 447.33 305.45 445.65 306.72 444.95 307.25 444.81 307.52 443.11 311.67 441.02 316.76 439.58 319.47 438.45 320.36 437.54 321.08 436.06 321.14 431.72 320.61 426.29 319.94 423.23 319.82 421.19 320.18 419.49 320.47 418.31 321.08 417.74 321.96 416.67 323.61 416.42 323.92 415.8 324.36 414.35 325.4 412.96 325.7 408.79 325.86 404.86 326.02 404.23 326.11 401.39 327 394.34 329.2 389.38 330.35 386.02 330.56 384.38 330.66 383.64 330.52 382.37 329.86 380.38 328.84 376.38 327.71 372.97 327.22 371.49 327.01 370.72 326.96 369.23 327.01 366.92 327.08 366.54 327.21 364.99 328.47 364.17 329.12 363.35 329.62 362 330.29 360.52 331.02 358.01 332.03 356.99 332.3 356.61 332.4 356.61 344.8 357 346.9 357.25 348.23 357.48 348.76 357.89 348.95 358.19 349.09 358.97 349.26 366.3 350.79 375.04 352.62 380 354.19 381.73 355.67 382.76 356.55 382.8 356.53 379.83 356.55 372.93 356.6 363.52 357.78 361.77 358.82L361.41 360.29C361.46 362.29 361.79 365.1 362.12 366.42 362.47 367.84 363.3 369.6 364.12 370.7 365.83 372.97 368.75 375.32 373.08 377.9 375.82 379.53 375.66 379.51 370.28 377.44 364.02 375.03 363.63 374.92 363.22 375.54 362.44 376.74 363.94 381.82 366.8 387.66 367.35 388.77 367.79 389.77 367.79 389.88 367.79 390.84 364.68 388.48 362.1 385.57 358.72 381.75 356.83 378.79 355.72 375.57 355.45 374.76 355.12 373.92 355.01 373.69 354.29 372.26 353.13 371.38 352.12 371.5 350.57 371.67 349.24 373.59 348.51 376.71 348.34 377.43 347.9 379.29 347.53 380.84 346.6 384.74 346.44 385.74 346.43 387.71 346.43 390.4 346.98 391.94 348.46 393.37 349.45 394.33 350.09 394.67 352.39 395.46 360.76 398.32 367.98 403.8 370.78 409.42 371.32 410.49 371.86 412.25 371.98 413.28 372.12 414.41 371.82 414.21 369.69 411.69 368.45 410.22 367.11 408.95 366.2 408.36 365.1 407.66 364.36 407.45 362.95 407.45 361.17 407.45 360.81 407.31 357.71 405.36 355.91 404.23 353.87 403.28 352.4 402.88 351.28 402.57 350.94 402.54 349.03 402.53 347.14 402.53 346.76 402.56 345.42 402.88 343.29 403.38 341.73 403.96 339.31 405.14 336.69 406.43 335.21 407.3 334.42 408.01 332.95 409.34 332.27 411.77 332.53 414.79 332.92 419.22 335.21 424.44 336.99 424.94 338.38 425.34 341.23 425.61 345.65 425.77L348.01 425.85C344.25 427.6 342.46 429.52 342.66 431.04 342.76 431.76 343.56 433.21 346.14 437.31 348.8 441.57 349.5 442.7 349.45 442.75 349.43 442.76 348.62 441.98 347.66 441.01 344.89 438.19 342.45 436.39 336.17 432.51ZM348.2 351.39C348.22 351.11 348.1 350.12 347.92 349.21 347.35 346.15 347.29 345.49 347.29 342.54 347.29 340.59 347.37 338.89 347.53 337.27 347.72 335.38 347.74 334.8 347.63 334.55 347.44 334.13 347.09 334.14 346.38 334.56L345.82 334.88 344.75 334.62C341.98 333.95 339.56 333.72 338.18 334.02 336.4 334.4 335.38 335.17 333.72 337.4 331.35 340.57 330.03 342.86 330.03 343.8 330.03 344.69 330.35 344.85 332.97 345.21 336.46 345.7 336.77 345.83 342.99 349.45 346.46 351.47 347.47 351.99 347.85 351.94 348.12 351.91 348.17 351.84 348.2 351.39L348.2 351.39Z"/></g></g></svg>
