<svg xmlns="http://www.w3.org/2000/svg" xmlns:xlink="http://www.w3.org/1999/xlink" width="107" height="94" viewBox="0 0 107 94" version="1.1"><title>Artstation</title><g stroke="none" stroke-width="1" fill="none" fill-rule="evenodd"><g fill="#999999"><path d="M0.4 72.3L9.3 87.7 9.3 87.7C11.1 91.2 14.7 93.6 18.8 93.6L18.8 93.6 18.8 93.6 78.1 93.6 65.8 72.3 0.4 72.3 0.4 72.3ZM106.2 72.4C106.2 70.3 105.6 68.3 104.5 66.6L69.7 6.2C67.9 2.8 64.4 0.5 60.3 0.5L41.9 0.5 95.6 93.5 104.1 78.8C105.7 76 106.2 74.8 106.2 72.4L106.2 72.4ZM57.1 57.1L33.2 15.6 9.2 57.1 57.1 57.1Z"/></g></g></svg>
