<svg xmlns="http://www.w3.org/2000/svg" xmlns:xlink="http://www.w3.org/1999/xlink" width="512" height="418" viewBox="0 0 512 418" version="1.1"><title>Twitter</title><g stroke="none" stroke-width="1" fill="none" fill-rule="evenodd"><g fill="#999999"><path d="M512 50.21C493.16 58.57 472.92 64.21 451.67 66.75 473.36 53.75 490.01 33.17 497.86 8.64 477.56 20.68 455.08 29.42 431.15 34.13 411.99 13.71 384.69 0.96 354.48 0.96 296.47 0.96 249.44 47.99 249.44 106 249.44 114.23 250.37 122.25 252.16 129.93 164.86 125.55 87.46 83.73 35.65 20.18 26.61 35.7 21.43 53.74 21.43 72.99 21.43 109.43 39.97 141.59 68.16 160.42 50.94 159.88 34.74 155.15 20.58 147.28 20.57 147.72 20.57 148.16 20.57 148.6 20.57 199.5 56.78 241.95 104.83 251.61 96.02 254 86.74 255.29 77.16 255.29 70.39 255.29 63.81 254.63 57.39 253.4 70.76 295.13 109.55 325.51 155.52 326.35 119.57 354.53 74.27 371.32 25.06 371.32 16.58 371.32 8.22 370.82 0 369.85 46.49 399.66 101.7 417.05 161.02 417.05 354.23 417.05 459.89 256.98 459.89 118.17 459.89 113.62 459.79 109.09 459.59 104.58 480.11 89.78 497.92 71.28 512 50.21L512 50.21Z"/></g></g></svg>
